inDegrees=no
num_controls=7
num_derivatives=13
num_iterations=176
num_multipliers=7
num_parameters=0
num_slacks=7
num_states=26
objective=0.523979
objective_accelerations=0.003178
objective_balance=0.003368
objective_effort=0.007858
objective_height=0.385947
objective_ligament=0.123627
solver_duration=2279.368716
status=Solve_Succeeded
success=true
DataType=double
version=3
OpenSimVersion=4.5
endheader
time	/jointset/ground_pelvis/pelvis_tilt/value	/jointset/ground_pelvis/pelvis_tx/value	/jointset/ground_pelvis/pelvis_ty/value	/jointset/hip_l/hip_flexion_l/value	/jointset/hip_l/hip_adduction_l/value	/jointset/hip_l/hip_rotation_l/value	/jointset/back/lumbar_extension/value	/jointset/patellofemoral_l/patellar_flexion_l/value	/jointset/knee_l/knee_flexion_l/value	/jointset/knee_l/knee_adduction_l/value	/jointset/knee_l/knee_rotation_l/value	/jointset/ankle_l/ankle_angle_l/value	/jointset/subtalar_l/subtalar_angle_l/value	/jointset/ground_pelvis/pelvis_tilt/speed	/jointset/ground_pelvis/pelvis_tx/speed	/jointset/ground_pelvis/pelvis_ty/speed	/jointset/hip_l/hip_flexion_l/speed	/jointset/hip_l/hip_adduction_l/speed	/jointset/hip_l/hip_rotation_l/speed	/jointset/back/lumbar_extension/speed	/jointset/patellofemoral_l/patellar_flexion_l/speed	/jointset/knee_l/knee_flexion_l/speed	/jointset/knee_l/knee_adduction_l/speed	/jointset/knee_l/knee_rotation_l/speed	/jointset/ankle_l/ankle_angle_l/speed	/jointset/subtalar_l/subtalar_angle_l/speed	/forceset/tau_hip_flexion_l	/forceset/tau_hip_adduction_l	/forceset/tau_hip_rotation_l	/forceset/tau_knee_flexion_l	/forceset/tau_ankle_angle_l	/forceset/tau_subtalar_angle_l	/forceset/tau_lumbar_extension	lambda_cid13_p0	lambda_cid13_p1	lambda_cid13_p2	lambda_cid13_p3	lambda_cid13_p4	lambda_cid13_p5	lambda_cid14_p0	/jointset/ground_pelvis/pelvis_tilt/accel	/jointset/ground_pelvis/pelvis_tx/accel	/jointset/ground_pelvis/pelvis_ty/accel	/jointset/hip_l/hip_flexion_l/accel	/jointset/hip_l/hip_adduction_l/accel	/jointset/hip_l/hip_rotation_l/accel	/jointset/back/lumbar_extension/accel	/jointset/patellofemoral_l/patellar_flexion_l/accel	/jointset/knee_l/knee_flexion_l/accel	/jointset/knee_l/knee_adduction_l/accel	/jointset/knee_l/knee_rotation_l/accel	/jointset/ankle_l/ankle_angle_l/accel	/jointset/subtalar_l/subtalar_angle_l/accel	gamma_cid13_p0	gamma_cid13_p1	gamma_cid13_p2	gamma_cid13_p3	gamma_cid13_p4	gamma_cid13_p5	gamma_cid14_p0
1.5	0.119290146029294	0.08201049006563432	0.9474255170946294	0.04008166899072954	-0.1967828491148112	-0.3852605649999772	-0.4843117979820976	0.09778091118173911	0.09778091118174594	-0.0230578950600438	-0.1745113043154604	0.00616692862946338	0.1083278760317214	0.1145931197001126	0.02659140319571697	0.01549139278716112	-0.2456640022517999	0.0177170483368488	-0.04238615989898324	0.2306261569460805	-0.1466678451029637	-0.1466678451029821	-0.02367156309083561	1.483984023619908e-05	-0.0187114894127612	0.01156717166356961	0.001712964897365547	0.04054061960035995	-0.006343448177558288	-0.09971101867636102	0.09374595409782822	-0.04748784981820232	0.1163166439852795	-19.581178764826	19.99405573831557	0.9938077745991069	5.384998613672888	-701.9863395060694	-39.68926845106863	-19.06433926921209	-0.08089450052238958	-0.06588411086461378	-0.0236822421000091	0.2347759922324152	-0.05924861533062871	0.06325742753928278	0.1747421994524151	0.1377566351976164	0.1377566351976172	-0.07755976328595507	0.00337614530496739	-0.04665587842899249	-0.08451294095731143	-2.502919213696525e-10	8.433036394014855e-09	-1.20995903987432e-09	6.956649302059331e-10	8.376264260731854e-09	3.017431664648419e-09	6.817872981994411e-10
1.51	0.120432081160222	0.08227309140623774	0.9475792582144897	0.03763667012821575	-0.1966086170920662	-0.3856813736379276	-0.4819972020896144	0.09632099532879856	0.09632099532877041	-0.02329848753467921	-0.1745110650611802	0.005977408397273271	0.1084393184416795	0.1137875501678969	0.02592627463646047	0.01525626591115739	-0.2433197208795893	0.01712842912570218	-0.04177367202452791	0.2322646901202216	-0.1453053900435359	-0.1453053900435733	-0.02444428107463059	3.224186424946097e-05	-0.0191919143871772	0.01072058435534304	0.004035418774288194	0.03943589441870499	-0.006294473996709485	-0.101581215365338	0.09595923330513317	-0.04800721665933547	0.1144472935141607	-18.91414541538751	20.15554579947937	0.9078409222807772	5.205055567736889	-701.9170834493713	-39.77508147118827	-19.01583157232822	-0.08134198257871071	-0.06721562154875615	-0.0235109644203942	0.2366613598877149	-0.05880896652765746	0.06052934415870213	0.1541591621812998	0.1369801106828366	0.136980110679935	-0.0767287701464885	0.0008062950093551758	-0.04863929124697343	-0.08484175087108882	-2.485538393822329e-10	8.714511997830886e-09	-1.284444696239281e-09	7.356295558408701e-10	8.580040866428931e-09	3.104445899855856e-09	7.204069443244899e-10
1.52	0.1215657698352396	0.08252896378262957	0.9477306314547769	0.03521559550944198	-0.1964402993399359	-0.3860960004217835	-0.4796670708082341	0.09487500206026059	0.09487500206027373	-0.02354672738000964	-0.1745106749738863	0.005783103218479169	0.1085422729535324	0.1129438285153774	0.02524561035340026	0.0150178168725057	-0.2408791535004904	0.01653419421369914	-0.04114978907967624	0.2337332347258298	-0.1438833282094071	-0.1438833282094637	-0.0252010372272301	4.500645066198277e-05	-0.01966847873355711	0.009869592042484892	0.006357872651006733	0.03833116923708955	-0.006245499815426369	-0.1034514120544657	0.09817251251238575	-0.04852658350045443	0.1125779430429307	-18.2469085118088	20.31711367179489	0.821732079498251	5.025860069633343	-701.8453020633489	-39.85776673517393	-18.96757496103179	-0.08852492458276476	-0.06899125562573531	-0.02434667462960385	0.2540331936102559	-0.0603717555018839	0.06553644161855013	0.1407444857459897	0.1496779901378679	0.1496779901378655	-0.07436739704678208	0.00244865778473811	-0.04588375282217462	-0.08539394188376696	-2.207756657858354e-10	9.025613346849384e-09	-1.399804690248218e-09	7.546193264600019e-10	8.799632558849854e-09	3.249475167893301e-09	7.675027762119935e-10
1.53	0.1226908722143216	0.08277795197228985	0.9478796062412832	0.03281936908423096	-0.1962779537936002	-0.3865043318301118	-0.4773231734223662	0.09344354336603082	0.09344354336602792	-0.02380245191329285	-0.1745101836332566	0.005584065861479217	0.1086366997182437	0.1120739095783094	0.02454936120063808	0.01477674679456534	-0.2383523142165818	0.01593347910020202	-0.04051355473985837	0.2350113242988786	-0.1423951178941892	-0.1423951178942163	-0.02594080796004468	5.276567946571067e-05	-0.02013632014948128	0.009015349705595321	0.008724231074731015	0.03718562960057139	-0.006197170601226392	-0.1054194099867081	0.1005098941255932	-0.04905640989955997	0.1106661016209727	-17.54025626153876	20.48000752213565	0.7312029829886459	4.825229832567229	-701.7674307441451	-39.94642074062298	-18.91959740044035	-0.08663640393092469	-0.07034155301023809	-0.02404438699519654	0.2540816330473555	-0.06013818269867777	0.06310820410712192	0.1161034711089438	0.1503862936029296	0.1503862936072867	-0.07332117801051395	-0.0001354838693988793	-0.04683330549499687	-0.08550236081234068	-1.653298948548992e-10	9.368192050145502e-09	-1.558593668003878e-09	7.513233136248411e-10	9.036027780914863e-09	3.45614540831263e-09	8.236045554721051e-10
1.54	0.1238071931989116	0.0830198977088403	0.9480261588844869	0.03044882551930242	-0.1961216587570823	-0.3869062126402548	-0.4749675426851639	0.09202736552319409	0.09202736552321129	-0.02406548200723487	-0.1745096297082208	0.005380430296416536	0.108722571463342	0.1111875496147526	0.02383711973143694	0.01453338821200375	-0.2357425814420328	0.01532409224968865	-0.03985966944229419	0.2360799049929235	-0.1408271579234023	-0.1408271579234001	-0.02666214935732382	5.752333636890612e-05	-0.02058812034610546	0.008158588119872846	0.01109058949831614	0.03604008996408245	-0.006148841386769447	-0.1073874079190538	0.1028472757387661	-0.0495862362986524	0.1087542601989379	-16.83333488774632	20.64296858506917	0.640532578861726	4.625181215371897	-701.6862763899805	-40.03163816350242	-18.87193618524515	-0.09181312988011069	-0.07218971891392337	-0.0248043755538489	0.2706118917385202	-0.06210610290510168	0.06906663316781622	0.09884270994535548	0.1656279212517113	0.1656279212517099	-0.07068152993960784	0.001848343404553852	-0.04267550896259995	-0.08589779165049259	-1.365309059383164e-10	9.696090671910743e-09	-1.679227410386222e-09	7.736490268619241e-10	9.218544153266125e-09	3.659558756474469e-09	8.691505723025719e-10
